<svg width="20" height="20" viewBox="0 0 20 20" fill="none" xmlns="http://www.w3.org/2000/svg">
<path d="M18.125 4.96687C17.5273 5.22468 16.877 5.41023 16.207 5.48249C16.9026 5.06928 17.4234 4.41647 17.6719 3.64655C17.0192 4.03481 16.3042 4.30707 15.5586 4.45124C15.247 4.11809 14.8701 3.85269 14.4514 3.67157C14.0327 3.49045 13.5812 3.3975 13.125 3.39851C11.2793 3.39851 9.79492 4.8946 9.79492 6.73054C9.79492 6.98835 9.82617 7.24616 9.87695 7.49421C7.11328 7.34968 4.64844 6.02937 3.00977 4.00788C2.71118 4.51787 2.55471 5.09856 2.55664 5.68952C2.55664 6.84577 3.14453 7.8653 4.04102 8.46491C3.5127 8.44411 2.99676 8.29889 2.53516 8.04108V8.0821C2.53516 9.70124 3.67969 11.043 5.20508 11.3516C4.91867 11.426 4.62404 11.4641 4.32813 11.4649C4.11133 11.4649 3.90625 11.4434 3.69922 11.4141C4.12109 12.7344 5.34961 13.6934 6.8125 13.7247C5.66797 14.6212 4.23438 15.1485 2.67773 15.1485C2.39844 15.1485 2.14062 15.1387 1.87305 15.1075C3.34961 16.0548 5.10156 16.6016 6.98828 16.6016C13.1133 16.6016 16.4648 11.5274 16.4648 7.12312C16.4648 6.97858 16.4648 6.83405 16.4551 6.68952C17.1035 6.21491 17.6719 5.62702 18.125 4.96687Z" fill="#595959"/>
</svg>
