<svg width="20" height="20" viewBox="0 0 20 20" fill="none" xmlns="http://www.w3.org/2000/svg">
<path d="M8.44857 8.65835C8.21047 8.67843 7.98876 8.78458 7.82723 8.95583C7.6657 9.12708 7.57609 9.351 7.57609 9.58335C7.57609 9.81571 7.6657 10.0396 7.82723 10.2109C7.98876 10.3821 8.21047 10.4883 8.44857 10.5084C8.56848 10.5035 8.68624 10.4758 8.79511 10.4267C8.90397 10.3775 9.0018 10.308 9.08301 10.2221C9.16422 10.1362 9.2272 10.0356 9.26835 9.92595C9.30951 9.81635 9.32803 9.69993 9.32286 9.58335C9.3287 9.46663 9.31065 9.34994 9.26974 9.24005C9.22883 9.13016 9.16589 9.02926 9.08456 8.94321C9.00322 8.85716 8.90512 8.78767 8.79595 8.73877C8.68677 8.68987 8.5687 8.66254 8.44857 8.65835ZM11.5771 8.65835C11.3855 8.64255 11.1934 8.68337 11.026 8.77547C10.8587 8.86758 10.7238 9.00667 10.6391 9.17454C10.5543 9.34241 10.5237 9.53124 10.5512 9.7163C10.5788 9.90137 10.6631 10.074 10.7932 10.2117C10.9234 10.3494 11.0932 10.4457 11.2806 10.488C11.4679 10.5302 11.6641 10.5165 11.8433 10.4486C12.0225 10.3807 12.1764 10.2617 12.2849 10.1074C12.3934 9.95298 12.4515 9.77034 12.4514 9.58335C12.4566 9.46678 12.4381 9.35036 12.3969 9.24075C12.3558 9.13115 12.2928 9.03051 12.2116 8.94459C12.1304 8.85867 12.0325 8.78917 11.9237 8.74005C11.8148 8.69094 11.6971 8.66318 11.5771 8.65835Z" fill="#595959"/>
<path d="M15.7429 1.66669H4.25715C4.02583 1.66723 3.79689 1.71207 3.5834 1.79864C3.36991 1.8852 3.17605 2.0118 3.01288 2.17121C2.84972 2.33062 2.72044 2.51971 2.63244 2.72769C2.54444 2.93567 2.49944 3.15846 2.50001 3.38335V14.6528C2.49944 14.8777 2.54444 15.1005 2.63244 15.3085C2.72044 15.5164 2.84972 15.7055 3.01288 15.8649C3.17605 16.0243 3.36991 16.1509 3.5834 16.2375C3.79689 16.3241 4.02583 16.3689 4.25715 16.3695H13.9771L13.5229 14.8278L14.62 15.8195L15.6571 16.75L17.5 18.3334V3.38335C17.5006 3.15846 17.4556 2.93567 17.3676 2.72769C17.2796 2.51971 17.1503 2.33062 16.9871 2.17121C16.824 2.0118 16.6301 1.8852 16.4166 1.79864C16.2031 1.71207 15.9742 1.66723 15.7429 1.66669ZM12.4343 12.55C12.4343 12.55 12.1257 12.1917 11.8686 11.875C12.4899 11.7328 13.0394 11.3815 13.42 10.8834C13.1116 11.0829 12.7809 11.2478 12.4343 11.375C12.0355 11.5405 11.6185 11.6607 11.1914 11.7334C10.4573 11.8648 9.70446 11.8619 8.97143 11.725C8.54205 11.643 8.12125 11.5231 7.71429 11.3667C7.37059 11.2391 7.0428 11.0741 6.73714 10.875C7.10396 11.3628 7.63453 11.7106 8.23714 11.8584C7.98 12.175 7.66572 12.5528 7.66572 12.5528C7.15656 12.5661 6.65184 12.4575 6.19598 12.2367C5.74011 12.0158 5.34707 11.6894 5.05143 11.2861C5.07883 9.59579 5.50088 7.93358 6.28572 6.42502C6.97602 5.89793 7.81761 5.59219 8.69429 5.55002L8.78 5.65002C7.95322 5.8478 7.18154 6.22056 6.52 6.74169C6.52 6.74169 6.70857 6.64169 7.02572 6.50002C7.64168 6.22564 8.29833 6.04752 8.97143 5.97224C9.01847 5.96275 9.06627 5.95717 9.11429 5.95558C9.68867 5.88282 10.27 5.87722 10.8457 5.93891C11.7523 6.03995 12.6298 6.31268 13.4286 6.74169C12.8022 6.246 12.0748 5.88526 11.2943 5.68335L11.4143 5.55002C12.291 5.59219 13.1326 5.89793 13.8229 6.42502C14.6077 7.93358 15.0297 9.59579 15.0571 11.2861C14.7588 11.6885 14.364 12.014 13.9069 12.2342C13.4498 12.4545 12.9443 12.5629 12.4343 12.55Z" fill="#595959"/>
</svg>
