<svg width="20" height="20" viewBox="0 0 20 20" fill="none" xmlns="http://www.w3.org/2000/svg">
<path d="M8.8444 7.87294V10.7354C8.51293 10.6404 8.16608 10.6274 7.8294 10.6975C7.49272 10.7676 7.17479 10.919 6.89906 11.1405C6.62333 11.3621 6.39683 11.6481 6.23624 11.9775C6.07565 12.3069 5.98507 12.6712 5.97118 13.0438C5.95219 13.3645 5.99657 13.686 6.10132 13.9865C6.20608 14.287 6.36878 14.5597 6.57849 14.7861C6.78821 15.0126 7.04007 15.1876 7.31714 15.2993C7.59422 15.4111 7.89008 15.457 8.18484 15.434C8.48258 15.4589 8.78172 15.4131 9.06161 15.2999C9.3415 15.1867 9.59546 15.0088 9.80595 14.7784C10.0164 14.548 10.1784 14.2707 10.2807 13.9656C10.383 13.6604 10.4232 13.3348 10.3985 13.0111V1.66669H13.0016C13.4441 4.66321 14.822 5.35835 16.6666 5.67919V8.55072C15.3883 8.43669 14.1551 7.98367 13.0751 7.23127V12.9028C13.0751 15.4722 11.6768 18.3334 8.20527 18.3334C7.55398 18.3303 6.90981 18.1858 6.31053 17.9084C5.71124 17.631 5.16889 17.2263 4.71528 16.718C4.26166 16.2097 3.90591 15.608 3.66887 14.9482C3.43182 14.2885 3.31826 13.5839 3.33484 12.8757C3.35546 12.1385 3.51953 11.4144 3.8162 10.7511C4.11288 10.0878 4.53544 9.50049 5.05603 9.02779C5.57661 8.55509 6.1834 8.20776 6.8364 8.0087C7.48939 7.80964 8.17376 7.76337 8.8444 7.87294V7.87294Z" fill="#595959"/>
</svg>
