<svg width="20" height="20" viewBox="0 0 20 20" fill="none" xmlns="http://www.w3.org/2000/svg">
<path d="M18.3007 3.42152C18.2872 3.35997 18.2576 3.30309 18.2151 3.25663C18.1725 3.21017 18.1184 3.17578 18.0583 3.15693C17.8393 3.11357 17.6127 3.12963 17.4021 3.20346C17.4021 3.20346 2.7986 8.45277 1.96457 9.03402C1.7854 9.15902 1.72498 9.23193 1.69512 9.31735C1.55068 9.73402 1.99998 9.91318 1.99998 9.91318L5.76387 11.1396C5.82752 11.151 5.89296 11.1472 5.95485 11.1285C6.8104 10.5875 14.566 5.68818 15.0167 5.5236C15.0861 5.50277 15.1396 5.5236 15.1257 5.57568C14.9465 6.20416 8.24443 12.1576 8.20762 12.1937C8.18969 12.2084 8.17573 12.2274 8.16699 12.2488C8.15826 12.2703 8.15504 12.2936 8.15762 12.3167L7.80623 15.9917C7.80623 15.9917 7.65901 17.1354 8.80276 15.9917C9.61387 15.1799 10.3923 14.5076 10.7812 14.1805C12.0757 15.0743 13.468 16.0625 14.0687 16.5799C14.1698 16.6777 14.2895 16.7541 14.4208 16.8046C14.552 16.855 14.6921 16.8785 14.8326 16.8736C15.0057 16.8525 15.1682 16.7792 15.2986 16.6635C15.429 16.5477 15.521 16.395 15.5625 16.2257C15.5625 16.2257 18.2222 5.51527 18.3111 4.08054C18.3201 3.94166 18.3319 3.84999 18.3333 3.75346C18.3376 3.64184 18.3267 3.53016 18.3007 3.42152Z" fill="#595959"/>
</svg>
